<svg xmlns="http://www.w3.org/2000/svg" width="880" height="470" viewBox="0 0 880 470" role="img" aria-label="Batch, micro-batch y streaming sobre una línea de tiempo, con la latencia de cada uno"><title>Batch, micro-batch y streaming sobre una línea de tiempo, con la latencia de cada uno</title><defs><marker id="f4a7a63" viewBox="0 0 10 10" refX="9" refY="5" markerWidth="6" markerHeight="6" orient="auto-start-reverse"><path d="M0,0 L10,5 L0,10 z" fill="#4a7a63"/></marker><marker id="f7ef29d" viewBox="0 0 10 10" refX="9" refY="5" markerWidth="6" markerHeight="6" orient="auto-start-reverse"><path d="M0,0 L10,5 L0,10 z" fill="#7ef29d"/></marker><marker id="fffc857" viewBox="0 0 10 10" refX="9" refY="5" markerWidth="6" markerHeight="6" orient="auto-start-reverse"><path d="M0,0 L10,5 L0,10 z" fill="#ffc857"/></marker><marker id="f6fd8e8" viewBox="0 0 10 10" refX="9" refY="5" markerWidth="6" markerHeight="6" orient="auto-start-reverse"><path d="M0,0 L10,5 L0,10 z" fill="#6fd8e8"/></marker><marker id="fc9a7ff" viewBox="0 0 10 10" refX="9" refY="5" markerWidth="6" markerHeight="6" orient="auto-start-reverse"><path d="M0,0 L10,5 L0,10 z" fill="#c9a7ff"/></marker><marker id="fff9f6b" viewBox="0 0 10 10" refX="9" refY="5" markerWidth="6" markerHeight="6" orient="auto-start-reverse"><path d="M0,0 L10,5 L0,10 z" fill="#ff9f6b"/></marker><marker id="f5fe0c0" viewBox="0 0 10 10" refX="9" refY="5" markerWidth="6" markerHeight="6" orient="auto-start-reverse"><path d="M0,0 L10,5 L0,10 z" fill="#5fe0c0"/></marker><marker id="fa7b8ad" viewBox="0 0 10 10" refX="9" refY="5" markerWidth="6" markerHeight="6" orient="auto-start-reverse"><path d="M0,0 L10,5 L0,10 z" fill="#a7b8ad"/></marker><marker id="fff6b6b" viewBox="0 0 10 10" refX="9" refY="5" markerWidth="6" markerHeight="6" orient="auto-start-reverse"><path d="M0,0 L10,5 L0,10 z" fill="#ff6b6b"/></marker><marker id="fff8ad4" viewBox="0 0 10 10" refX="9" refY="5" markerWidth="6" markerHeight="6" orient="auto-start-reverse"><path d="M0,0 L10,5 L0,10 z" fill="#ff8ad4"/></marker><marker id="f7aa7ff" viewBox="0 0 10 10" refX="9" refY="5" markerWidth="6" markerHeight="6" orient="auto-start-reverse"><path d="M0,0 L10,5 L0,10 z" fill="#7aa7ff"/></marker><marker id="f84eba6" viewBox="0 0 10 10" refX="9" refY="5" markerWidth="6" markerHeight="6" orient="auto-start-reverse"><path d="M0,0 L10,5 L0,10 z" fill="#84eba6"/></marker><marker id="f84c9eb" viewBox="0 0 10 10" refX="9" refY="5" markerWidth="6" markerHeight="6" orient="auto-start-reverse"><path d="M0,0 L10,5 L0,10 z" fill="#84c9eb"/></marker><marker id="fa684eb" viewBox="0 0 10 10" refX="9" refY="5" markerWidth="6" markerHeight="6" orient="auto-start-reverse"><path d="M0,0 L10,5 L0,10 z" fill="#a684eb"/></marker><marker id="feb84c9" viewBox="0 0 10 10" refX="9" refY="5" markerWidth="6" markerHeight="6" orient="auto-start-reverse"><path d="M0,0 L10,5 L0,10 z" fill="#eb84c9"/></marker><marker id="feba684" viewBox="0 0 10 10" refX="9" refY="5" markerWidth="6" markerHeight="6" orient="auto-start-reverse"><path d="M0,0 L10,5 L0,10 z" fill="#eba684"/></marker><marker id="fc9eb84" viewBox="0 0 10 10" refX="9" refY="5" markerWidth="6" markerHeight="6" orient="auto-start-reverse"><path d="M0,0 L10,5 L0,10 z" fill="#c9eb84"/></marker><marker id="f5b83d6" viewBox="0 0 10 10" refX="9" refY="5" markerWidth="6" markerHeight="6" orient="auto-start-reverse"><path d="M0,0 L10,5 L0,10 z" fill="#5b83d6"/></marker><marker id="f4fd6c0" viewBox="0 0 10 10" refX="9" refY="5" markerWidth="6" markerHeight="6" orient="auto-start-reverse"><path d="M0,0 L10,5 L0,10 z" fill="#4fd6c0"/></marker><marker id="fff7a5c" viewBox="0 0 10 10" refX="9" refY="5" markerWidth="6" markerHeight="6" orient="auto-start-reverse"><path d="M0,0 L10,5 L0,10 z" fill="#ff7a5c"/></marker><linearGradient id="gRamaAB" x1="0" y1="0" x2="1" y2="0"><stop offset="0" stop-color="#6fd8e8"/><stop offset="1" stop-color="#c9a7ff"/></linearGradient></defs><rect x="0" y="0" width="880" height="470" rx="16" fill="#0b0f12"/><text x="30.0" y="32.0" fill="#e8f0e8" font-family="system-ui, -apple-system, Segoe UI, sans-serif" font-size="17" font-weight="700" text-anchor="start">Cuando un dato se vuelve verdad</text><text x="30.0" y="54.0" fill="#a7b8ad" font-family="system-ui, -apple-system, Segoe UI, sans-serif" font-size="12.5" font-weight="400" text-anchor="start">Los tres separan cuánto tardan.</text><text x="24.0" y="142.0" fill="#5b83d6" font-family="system-ui, -apple-system, Segoe UI, sans-serif" font-size="15" font-weight="700" text-anchor="start">Batch</text><text x="24.0" y="163.0" fill="#a7b8ad" font-family="system-ui, -apple-system, Segoe UI, sans-serif" font-size="12" font-weight="400" text-anchor="start">latencia ~24 h</text><text x="24.0" y="183.0" fill="#a7b8ad" font-family="system-ui, -apple-system, Segoe UI, sans-serif" font-size="11" font-weight="400" text-anchor="start" opacity="0.85">Una corrida al día.</text><rect x="230.0" y="131.0" width="600.0" height="38.0" rx="8" fill="#141b20" stroke="#5b83d6" stroke-width="1" opacity="0.95"/><rect x="250.0" y="138.0" width="60.0" height="24.0" rx="3" fill="#5b83d6" opacity="0.9"/><rect x="560.0" y="138.0" width="60.0" height="24.0" rx="3" fill="#5b83d6" opacity="0.9"/><text x="24.0" y="247.0" fill="#4fd6c0" font-family="system-ui, -apple-system, Segoe UI, sans-serif" font-size="15" font-weight="700" text-anchor="start">Micro-batch</text><text x="24.0" y="268.0" fill="#a7b8ad" font-family="system-ui, -apple-system, Segoe UI, sans-serif" font-size="12" font-weight="400" text-anchor="start">latencia ~5 min</text><text x="24.0" y="288.0" fill="#a7b8ad" font-family="system-ui, -apple-system, Segoe UI, sans-serif" font-size="11" font-weight="400" text-anchor="start" opacity="0.85">Lotes pequeños y frecuentes.</text><rect x="230.0" y="236.0" width="600.0" height="38.0" rx="8" fill="#141b20" stroke="#4fd6c0" stroke-width="1" opacity="0.95"/><rect x="248.0" y="243.0" width="18.0" height="24.0" rx="3" fill="#4fd6c0" opacity="0.9"/><rect x="320.0" y="243.0" width="18.0" height="24.0" rx="3" fill="#4fd6c0" opacity="0.9"/><rect x="392.0" y="243.0" width="18.0" height="24.0" rx="3" fill="#4fd6c0" opacity="0.9"/><rect x="464.0" y="243.0" width="18.0" height="24.0" rx="3" fill="#4fd6c0" opacity="0.9"/><rect x="536.0" y="243.0" width="18.0" height="24.0" rx="3" fill="#4fd6c0" opacity="0.9"/><rect x="608.0" y="243.0" width="18.0" height="24.0" rx="3" fill="#4fd6c0" opacity="0.9"/><rect x="680.0" y="243.0" width="18.0" height="24.0" rx="3" fill="#4fd6c0" opacity="0.9"/><rect x="752.0" y="243.0" width="18.0" height="24.0" rx="3" fill="#4fd6c0" opacity="0.9"/><text x="24.0" y="352.0" fill="#ff7a5c" font-family="system-ui, -apple-system, Segoe UI, sans-serif" font-size="15" font-weight="700" text-anchor="start">Streaming</text><text x="24.0" y="373.0" fill="#a7b8ad" font-family="system-ui, -apple-system, Segoe UI, sans-serif" font-size="12" font-weight="400" text-anchor="start">latencia &lt; 1 s</text><text x="24.0" y="393.0" fill="#a7b8ad" font-family="system-ui, -apple-system, Segoe UI, sans-serif" font-size="11" font-weight="400" text-anchor="start" opacity="0.85">Cada evento, al llegar.</text><rect x="230.0" y="341.0" width="600.0" height="38.0" rx="8" fill="#141b20" stroke="#ff7a5c" stroke-width="1" opacity="0.95"/><rect x="240.0" y="348.0" width="4.0" height="24.0" rx="3" fill="#ff7a5c" opacity="0.9"/><rect x="264.0" y="348.0" width="4.0" height="24.0" rx="3" fill="#ff7a5c" opacity="0.9"/><rect x="288.0" y="348.0" width="4.0" height="24.0" rx="3" fill="#ff7a5c" opacity="0.9"/><rect x="312.0" y="348.0" width="4.0" height="24.0" rx="3" fill="#ff7a5c" opacity="0.9"/><rect x="336.0" y="348.0" width="4.0" height="24.0" rx="3" fill="#ff7a5c" opacity="0.9"/><rect x="360.0" y="348.0" width="4.0" height="24.0" rx="3" fill="#ff7a5c" opacity="0.9"/><rect x="384.0" y="348.0" width="4.0" height="24.0" rx="3" fill="#ff7a5c" opacity="0.9"/><rect x="408.0" y="348.0" width="4.0" height="24.0" rx="3" fill="#ff7a5c" opacity="0.9"/><rect x="432.0" y="348.0" width="4.0" height="24.0" rx="3" fill="#ff7a5c" opacity="0.9"/><rect x="456.0" y="348.0" width="4.0" height="24.0" rx="3" fill="#ff7a5c" opacity="0.9"/><rect x="480.0" y="348.0" width="4.0" height="24.0" rx="3" fill="#ff7a5c" opacity="0.9"/><rect x="504.0" y="348.0" width="4.0" height="24.0" rx="3" fill="#ff7a5c" opacity="0.9"/><rect x="528.0" y="348.0" width="4.0" height="24.0" rx="3" fill="#ff7a5c" opacity="0.9"/><rect x="552.0" y="348.0" width="4.0" height="24.0" rx="3" fill="#ff7a5c" opacity="0.9"/><rect x="576.0" y="348.0" width="4.0" height="24.0" rx="3" fill="#ff7a5c" opacity="0.9"/><rect x="600.0" y="348.0" width="4.0" height="24.0" rx="3" fill="#ff7a5c" opacity="0.9"/><rect x="624.0" y="348.0" width="4.0" height="24.0" rx="3" fill="#ff7a5c" opacity="0.9"/><rect x="648.0" y="348.0" width="4.0" height="24.0" rx="3" fill="#ff7a5c" opacity="0.9"/><rect x="672.0" y="348.0" width="4.0" height="24.0" rx="3" fill="#ff7a5c" opacity="0.9"/><rect x="696.0" y="348.0" width="4.0" height="24.0" rx="3" fill="#ff7a5c" opacity="0.9"/><rect x="720.0" y="348.0" width="4.0" height="24.0" rx="3" fill="#ff7a5c" opacity="0.9"/><rect x="744.0" y="348.0" width="4.0" height="24.0" rx="3" fill="#ff7a5c" opacity="0.9"/><rect x="768.0" y="348.0" width="4.0" height="24.0" rx="3" fill="#ff7a5c" opacity="0.9"/><rect x="792.0" y="348.0" width="4.0" height="24.0" rx="3" fill="#ff7a5c" opacity="0.9"/><rect x="816.0" y="348.0" width="4.0" height="24.0" rx="3" fill="#ff7a5c" opacity="0.9"/><line x1="230.0" y1="410.0" x2="830.0" y2="410.0" stroke="#a7b8ad" stroke-width="1.2" marker-end="url(#fa7b8ad)"/><text x="230.0" y="430.0" fill="#a7b8ad" font-family="system-ui, -apple-system, Segoe UI, sans-serif" font-size="11.5" font-weight="400" text-anchor="start">tiempo</text><text x="24.0" y="456.0" fill="#a7b8ad" font-family="system-ui, -apple-system, Segoe UI, sans-serif" font-size="11.5" font-weight="400" text-anchor="start">de más lento a más fresco:</text><rect x="196.0" y="444.0" width="13" height="13" rx="4" fill="#5b83d6"/><text x="215.0" y="455.0" fill="#a7b8ad" font-family="system-ui, -apple-system, Segoe UI, sans-serif" font-size="11.5" font-weight="400" text-anchor="start">batch</text><rect x="265.5" y="444.0" width="13" height="13" rx="4" fill="#4fd6c0"/><text x="284.5" y="455.0" fill="#a7b8ad" font-family="system-ui, -apple-system, Segoe UI, sans-serif" font-size="11.5" font-weight="400" text-anchor="start">micro-batch</text><rect x="371.5" y="444.0" width="13" height="13" rx="4" fill="#ff7a5c"/><text x="390.5" y="455.0" fill="#a7b8ad" font-family="system-ui, -apple-system, Segoe UI, sans-serif" font-size="11.5" font-weight="400" text-anchor="start">streaming</text></svg>